<svg width="276" height="34" viewBox="0 0 276 34" fill="none" xmlns="http://www.w3.org/2000/svg">
<path fill-rule="evenodd" clip-rule="evenodd" d="M6.86494 4.71929C6.51774 5.34261 5.85436 6.53615 5.39079 7.37156L4.5479 8.89048L5.30522 8.92483C5.72173 8.94376 10.4027 8.95428 15.7074 8.9482L25.3523 8.93722L25.5649 8.56333C25.6819 8.35769 26.3424 7.16942 27.0328 5.92274L28.2881 3.65604L27.9947 3.62646C27.8334 3.61019 23.1552 3.5944 17.5988 3.59141L7.49625 3.58594L6.86494 4.71929ZM32.5004 3.63267C31.1702 6.04589 20.6452 24.9837 20.6105 25.0261C20.5725 25.0724 18.8939 25.0845 12.5025 25.0845C7.22135 25.0845 4.4477 25.1004 4.45794 25.1307C4.46649 25.156 5.12547 26.3545 5.92232 27.794L7.37114 30.4113L15.4661 30.4119L23.5611 30.4124C23.7221 30.1361 29.395 19.9396 33.9053 11.8071L35.45 9.02195L36.6424 8.99129C37.2982 8.97437 40.9335 8.96058 44.7208 8.96058C48.5081 8.96058 51.6068 8.94904 51.6068 8.93488C51.6068 8.88768 51.4632 8.62362 50.0767 6.12137L48.6978 3.63267H40.5991H32.5004ZM0.794392 15.6555C0.394331 16.3817 0.042596 17.0239 0.0127316 17.0826C-0.0358739 17.1782 0.0304914 17.3193 0.644323 18.4264L1.33017 19.6634L10.3729 19.6516L19.4156 19.6398L20.8584 17.0459C21.6519 15.6193 22.3017 14.4258 22.3023 14.3937C22.3031 14.3471 20.1946 14.3352 11.9125 14.3352H1.52175L0.794392 15.6555ZM35.1441 16.9174C34.3557 18.3376 33.6983 19.533 33.6833 19.5739C33.6591 19.6395 33.7588 19.6518 34.5343 19.6789C35.6646 19.7184 53.5605 19.7104 54.077 19.6702L54.4675 19.6398L55.2338 18.2626C55.6552 17.5052 56 16.8656 56 16.8411C56 16.8167 55.6937 16.2429 55.3193 15.566L54.6387 14.3352H45.6082H36.5777L35.1441 16.9174ZM30.5876 25.1429C30.5516 25.1886 28.295 29.2452 27.7946 30.1639L27.6881 30.3593L27.9751 30.388C28.133 30.4038 32.8154 30.4105 38.3805 30.4029L48.4989 30.3891L49.956 27.7718C50.7574 26.3324 51.4146 25.1389 51.4165 25.1196C51.4183 25.1003 46.743 25.0845 41.0268 25.0845C32.7682 25.0845 30.6243 25.0965 30.5876 25.1429Z" fill="white"/>
<path d="M70.188 9.004H103.782L102.33 14.394H87.436L90.912 15.296L90.692 16.198H100.68C100.929 16.198 101.142 16.286 101.318 16.462C101.494 16.6233 101.582 16.8287 101.582 17.078C101.582 17.1807 101.575 17.2613 101.56 17.32L97.996 30.586L91.55 27H80.33L81.782 21.588H92.958L93.442 19.806H82.266L84.026 13.206H85.896L70.188 9.004ZM123.283 9.004C123.533 9.004 123.745 9.092 123.921 9.268C124.097 9.444 124.185 9.65667 124.185 9.906C124.185 10.0087 124.178 10.0893 124.163 10.148L121.259 20.95C121.215 21.1407 121.113 21.302 120.951 21.434C120.79 21.5513 120.607 21.61 120.401 21.61H109.907L108.477 27H101.019L105.837 9.004H123.283ZM115.561 14.416H108.125L111.601 15.318L111.359 16.22H115.077L115.561 14.416ZM121.666 27L126.484 9.004H133.942L132.49 14.416H128.772L132.248 15.318L129.124 27H121.666ZM138.62 27H131.184L136.002 9.004H153.448C153.697 9.004 153.91 9.092 154.086 9.268C154.262 9.444 154.35 9.65667 154.35 9.906C154.35 10.0087 154.342 10.0893 154.328 10.148L152.7 16.22L150.346 18.002L151.732 19.806L149.796 27H142.36L143.79 21.61H140.072L138.62 27ZM138.268 14.416L141.766 15.296L141.524 16.198H145.242L145.726 14.416H138.268ZM151.83 27L156.648 9.004H164.106L162.654 14.416H158.936L162.412 15.318L159.288 27H151.83ZM170.352 14.416H164.764L166.216 9.004H184.828L183.398 14.416H174.07L177.568 15.296L174.422 27H166.986L170.352 14.416ZM199.417 19.784L198.933 21.588H210.109L208.657 27H191.211C190.961 27 190.749 26.912 190.573 26.736C190.397 26.56 190.309 26.3473 190.309 26.098C190.309 25.9953 190.316 25.9147 190.331 25.856L192.751 16.858C192.795 16.6527 192.897 16.4913 193.059 16.374C193.22 16.2567 193.403 16.198 193.609 16.198H204.103L204.587 14.394H193.411L194.841 9.004H212.309C212.558 9.004 212.771 9.092 212.947 9.268C213.123 9.444 213.211 9.64933 213.211 9.884C213.211 9.928 213.203 9.972 213.189 10.016C213.189 10.0453 213.181 10.082 213.167 10.126L210.769 19.124C210.71 19.3293 210.6 19.4907 210.439 19.608C210.277 19.7253 210.094 19.784 209.889 19.784H199.417ZM232.805 9.026C233.069 9.026 233.281 9.114 233.443 9.29C233.619 9.45133 233.707 9.65667 233.707 9.906C233.707 9.95 233.699 9.994 233.685 10.038C233.685 10.0673 233.677 10.104 233.663 10.148L229.329 26.34C229.27 26.5453 229.16 26.7067 228.999 26.824C228.852 26.9413 228.676 27 228.471 27H211.707C211.457 27 211.245 26.912 211.069 26.736C210.893 26.56 210.805 26.3547 210.805 26.12C210.805 26.0173 210.812 25.9367 210.827 25.878L215.183 9.686C215.227 9.48067 215.329 9.31933 215.491 9.202C215.652 9.08467 215.835 9.026 216.041 9.026H232.805ZM225.083 14.284H221.365L219.429 21.478H223.169L225.083 14.284ZM240.409 19.784L239.925 21.588H251.101L249.649 27H232.203C231.953 27 231.741 26.912 231.565 26.736C231.389 26.56 231.301 26.3473 231.301 26.098C231.301 25.9953 231.308 25.9147 231.323 25.856L233.743 16.858C233.787 16.6527 233.889 16.4913 234.051 16.374C234.212 16.2567 234.395 16.198 234.601 16.198H245.095L245.579 14.394H234.403L235.833 9.004H253.301C253.55 9.004 253.763 9.092 253.939 9.268C254.115 9.444 254.203 9.64933 254.203 9.884C254.203 9.928 254.195 9.972 254.181 10.016C254.181 10.0453 254.173 10.082 254.159 10.126L251.761 19.124C251.702 19.3293 251.592 19.4907 251.431 19.608C251.269 19.7253 251.086 19.784 250.881 19.784H240.409ZM260.905 19.784L260.421 21.588H271.597L270.145 27H252.699C252.449 27 252.237 26.912 252.061 26.736C251.885 26.56 251.797 26.3473 251.797 26.098C251.797 25.9953 251.804 25.9147 251.819 25.856L254.239 16.858C254.283 16.6527 254.385 16.4913 254.547 16.374C254.708 16.2567 254.891 16.198 255.097 16.198H265.591L266.075 14.394H254.899L256.329 9.004H273.797C274.046 9.004 274.259 9.092 274.435 9.268C274.611 9.444 274.699 9.64933 274.699 9.884C274.699 9.928 274.691 9.972 274.677 10.016C274.677 10.0453 274.669 10.082 274.655 10.126L272.257 19.124C272.198 19.3293 272.088 19.4907 271.927 19.608C271.765 19.7253 271.582 19.784 271.377 19.784H260.905Z" fill="white"/>
</svg>
