<svg width="250" height="177" viewBox="0 0 250 177" fill="none" xmlns="http://www.w3.org/2000/svg">
<g filter="url(#filter0_d_45_5464)">
<rect x="40" y="10.0098" width="170" height="96" rx="16" fill="white"/>
</g>
<g clip-path="url(#clip0_45_5464)">
<path d="M107.062 59.9846L106.335 62.0404H106.274C106.153 61.5768 105.931 60.8714 105.567 60.0249L101.669 50.2497H97.8516V65.8295H100.376V56.2156C100.376 55.6109 100.376 54.9257 100.356 54.0792C100.336 53.6559 100.296 53.3334 100.275 53.0916H100.336C100.457 53.6962 100.599 54.1396 100.7 54.4218L105.386 65.7892H107.163L111.809 54.321C111.91 54.059 112.011 53.535 112.112 53.0916H112.172C112.112 54.2404 112.071 55.2683 112.051 55.8931V65.7691H114.738V50.2094H111.061L107.062 59.9846ZM117.283 54.6032H119.909V65.7691H117.283V54.6032ZM118.616 49.8869C118.171 49.8869 117.808 50.0481 117.505 50.3303C117.202 50.6125 117.04 50.9753 117.04 51.4187C117.04 51.8419 117.202 52.2047 117.505 52.4869C117.808 52.7691 118.171 52.9102 118.616 52.9102C119.06 52.9102 119.444 52.7489 119.727 52.4869C120.03 52.2047 120.191 51.8419 120.191 51.4187C120.191 50.9954 120.03 50.6326 119.727 50.3303C119.464 50.0481 119.08 49.8869 118.616 49.8869ZM129.22 54.5024C128.735 54.4016 128.23 54.3412 127.746 54.3412C126.554 54.3412 125.463 54.6032 124.554 55.1272C123.645 55.6512 122.918 56.3768 122.454 57.2838C121.969 58.2109 121.726 59.2792 121.726 60.5086C121.726 61.5768 121.969 62.5241 122.433 63.3908C122.898 64.2373 123.544 64.9226 124.413 65.3861C125.241 65.8497 126.21 66.0916 127.301 66.0916C128.554 66.0916 129.624 65.8295 130.472 65.3458L130.493 65.3257V62.9071L130.392 62.9877C130.008 63.2698 129.563 63.5117 129.119 63.6528C128.655 63.814 128.23 63.8947 127.867 63.8947C126.816 63.8947 125.988 63.5923 125.403 62.9272C124.797 62.2823 124.494 61.3954 124.494 60.2869C124.494 59.1381 124.797 58.2311 125.423 57.566C126.049 56.9009 126.877 56.5582 127.887 56.5582C128.735 56.5582 129.604 56.8404 130.392 57.4047L130.493 57.4854V54.9257L130.472 54.9055C130.129 54.7644 129.745 54.6032 129.22 54.5024ZM137.885 54.4218C137.239 54.4218 136.633 54.6233 136.108 55.0466C135.663 55.4094 135.36 55.9334 135.098 56.5582H135.078V54.6032H132.452V65.7691H135.078V60.0652C135.078 59.0978 135.28 58.2916 135.724 57.7071C136.168 57.1024 136.734 56.8001 137.421 56.8001C137.663 56.8001 137.906 56.8605 138.209 56.9009C138.491 56.9815 138.693 57.0621 138.835 57.1629L138.936 57.2435V54.6233L138.875 54.6032C138.693 54.4823 138.33 54.4218 137.885 54.4218ZM145.036 54.3613C143.198 54.3613 141.723 54.9055 140.693 55.9737C139.643 57.0419 139.138 58.5133 139.138 60.3675C139.138 62.1009 139.663 63.5117 140.673 64.5396C141.683 65.5474 143.056 66.0714 144.773 66.0714C146.571 66.0714 148.005 65.5272 149.035 64.4388C150.085 63.3505 150.59 61.8993 150.59 60.1055C150.59 58.3319 150.106 56.921 149.116 55.8931C148.166 54.8652 146.773 54.3613 145.036 54.3613ZM147.136 62.9474C146.652 63.5722 145.884 63.8745 144.935 63.8745C143.985 63.8745 143.218 63.5722 142.672 62.9071C142.127 62.2823 141.864 61.3753 141.864 60.2264C141.864 59.0373 142.147 58.1303 142.672 57.4854C143.218 56.8404 143.965 56.5179 144.914 56.5179C145.844 56.5179 146.571 56.8202 147.096 57.445C147.621 58.0698 147.904 58.9768 147.904 60.166C147.863 61.3753 147.641 62.3226 147.136 62.9474ZM156.448 59.2388C155.62 58.8962 155.095 58.6342 154.852 58.4125C154.65 58.2109 154.549 57.9288 154.549 57.566C154.549 57.2636 154.67 56.9613 154.973 56.7598C155.276 56.5582 155.62 56.4574 156.125 56.4574C156.569 56.4574 157.034 56.5381 157.478 56.659C157.922 56.7799 158.326 56.9613 158.65 57.2032L158.751 57.2838V54.8249L158.69 54.8047C158.387 54.6838 157.983 54.5629 157.498 54.4621C157.013 54.3815 156.569 54.3412 156.206 54.3412C154.953 54.3412 153.923 54.6435 153.115 55.3086C152.307 55.9334 151.923 56.7799 151.923 57.7675C151.923 58.2916 152.004 58.7551 152.186 59.1381C152.368 59.521 152.63 59.8838 152.994 60.1861C153.358 60.4683 153.883 60.7908 154.61 61.0931C155.216 61.3551 155.68 61.5567 155.963 61.7179C156.246 61.8792 156.428 62.0605 156.569 62.2016C156.67 62.3629 156.731 62.5644 156.731 62.8264C156.731 63.5722 156.165 63.935 155.014 63.935C154.569 63.935 154.105 63.8543 153.56 63.673C153.014 63.4916 152.509 63.2295 152.085 62.9272L151.984 62.8466V65.4063L152.045 65.4264C152.428 65.6078 152.893 65.7288 153.459 65.8699C154.024 65.9706 154.529 66.0512 154.973 66.0512C156.327 66.0512 157.438 65.7489 158.225 65.0838C159.033 64.4388 159.458 63.6125 159.458 62.5443C159.458 61.7985 159.256 61.1334 158.811 60.6295C158.225 60.1458 157.498 59.6419 156.448 59.2388ZM166.386 54.3613C164.548 54.3613 163.073 54.9055 162.043 55.9737C161.013 57.0419 160.488 58.5133 160.488 60.3675C160.488 62.1009 161.013 63.5117 162.023 64.5396C163.033 65.5474 164.406 66.0714 166.123 66.0714C167.921 66.0714 169.355 65.5272 170.385 64.4388C171.435 63.3505 171.94 61.8993 171.94 60.1055C171.94 58.3319 171.456 56.921 170.466 55.8931C169.516 54.8652 168.123 54.3613 166.386 54.3613ZM168.466 62.9474C167.981 63.5722 167.214 63.8745 166.264 63.8745C165.295 63.8745 164.548 63.5722 164.002 62.9071C163.457 62.2823 163.194 61.3753 163.194 60.2264C163.194 59.0373 163.477 58.1303 164.002 57.4854C164.548 56.8404 165.295 56.5179 166.244 56.5179C167.153 56.5179 167.901 56.8202 168.426 57.445C168.951 58.0698 169.234 58.9768 169.234 60.166C169.234 61.3753 168.971 62.3226 168.466 62.9474ZM185.978 56.7598V54.6032H183.332V51.2978L183.252 51.3179L180.747 52.0636L180.686 52.0838V54.6032H176.727V53.1923C176.727 52.5474 176.889 52.0435 177.172 51.721C177.455 51.3985 177.879 51.2373 178.404 51.2373C178.767 51.2373 179.151 51.3179 179.575 51.4993L179.676 51.5598V49.2823L179.616 49.2621C179.252 49.1412 178.767 49.0605 178.141 49.0605C177.354 49.0605 176.667 49.2419 176.041 49.5443C175.414 49.8869 174.95 50.3505 174.607 50.9753C174.263 51.5799 174.081 52.2652 174.081 53.0512V54.6032H172.243V56.7396H174.081V65.7691H176.727V56.7598H180.686V62.504C180.686 64.8621 181.797 66.0512 184.019 66.0512C184.383 66.0512 184.766 65.9908 185.13 65.9303C185.514 65.8497 185.797 65.7489 185.958 65.6683L185.978 65.6481V63.4916L185.877 63.5722C185.716 63.673 185.574 63.7536 185.332 63.814C185.13 63.8745 184.948 63.8947 184.807 63.8947C184.282 63.8947 183.918 63.7737 183.656 63.4714C183.413 63.1892 183.292 62.7257 183.292 62.0404V56.7598H185.978Z" fill="#737373"/>
<path d="M64 45.0098H76.3818V57.3648H64V45.0098Z" fill="#F25022"/>
<path d="M77.6719 45.0098H90.0537V57.3648H77.6719V45.0098Z" fill="#7FBA00"/>
<path d="M64 58.6543H76.3818V71.0093H64V58.6543Z" fill="#00A4EF"/>
<path d="M77.6719 58.6543H90.0537V71.0093H77.6719V58.6543Z" fill="#FFB900"/>
</g>
<defs>
<filter id="filter0_d_45_5464" x="0" y="0.00976562" width="250" height="176" filterUnits="userSpaceOnUse" color-interpolation-filters="sRGB">
<feFlood flood-opacity="0" result="BackgroundImageFix"/>
<feColorMatrix in="SourceAlpha" type="matrix" values="0 0 0 0 0 0 0 0 0 0 0 0 0 0 0 0 0 0 127 0" result="hardAlpha"/>
<feOffset dy="30"/>
<feGaussianBlur stdDeviation="20"/>
<feColorMatrix type="matrix" values="0 0 0 0 0.831373 0 0 0 0 0.85098 0 0 0 0 0.909804 0 0 0 0.2 0"/>
<feBlend mode="normal" in2="BackgroundImageFix" result="effect1_dropShadow_45_5464"/>
<feBlend mode="normal" in="SourceGraphic" in2="effect1_dropShadow_45_5464" result="shape"/>
</filter>
<clipPath id="clip0_45_5464">
<rect width="122" height="26" fill="white" transform="translate(64 45.0098)"/>
</clipPath>
</defs>
</svg>
